<svg width="18" height="18" viewBox="0 0 18 18" fill="none" xmlns="http://www.w3.org/2000/svg">
<path fill-rule="evenodd" clip-rule="evenodd" d="M9.00033 2.33317C5.31843 2.33317 2.33366 5.31794 2.33366 8.99984C2.33366 12.6817 5.31843 15.6665 9.00033 15.6665C12.6822 15.6665 15.667 12.6817 15.667 8.99984C15.667 5.31794 12.6822 2.33317 9.00033 2.33317ZM9.86926 4.7498C9.86926 4.33561 9.53349 3.99984 9.1193 3.99984C8.7051 3.99984 8.36933 4.33561 8.36933 4.7498V5.56987H7.63719C6.97965 5.56987 6.45069 5.85625 6.10826 6.30555C5.78338 6.73184 5.65685 7.26058 5.66762 7.74549C5.67841 8.23102 5.82803 8.74616 6.14772 9.15764C6.48111 9.58677 6.99287 9.8878 7.63719 9.8878H10.3395C10.6622 9.8878 10.8104 9.99342 10.8801 10.0728C10.9599 10.1637 11.012 10.307 10.9974 10.4858C10.9694 10.8289 10.7048 11.2059 10.1078 11.2059H6.62381C6.20962 11.2059 5.87385 11.5417 5.87385 11.9558C5.87385 12.37 6.20962 12.7058 6.62381 12.7058H8.36933V13.3653C8.36933 13.7795 8.7051 14.1153 9.1193 14.1153C9.53349 14.1153 9.86926 13.7795 9.86926 13.3653V12.7058H10.1078C11.5405 12.7058 12.4053 11.6738 12.4923 10.6079C12.5353 10.0822 12.3914 9.52094 12.0075 9.08346C11.6135 8.63451 11.0302 8.38788 10.3395 8.38788H7.63719C7.49961 8.38788 7.40929 8.33666 7.33218 8.23741C7.24137 8.12052 7.17204 7.93115 7.16718 7.71218C7.1623 7.49258 7.22343 7.31682 7.30123 7.21473C7.36149 7.13566 7.45024 7.06979 7.63719 7.06979H9.15725H10.6773C11.0915 7.06979 11.4273 6.73402 11.4273 6.31983C11.4273 5.90564 11.0915 5.56987 10.6773 5.56987H9.86926V4.7498Z" fill="#FFF2F2"/>
<path fill-rule="evenodd" clip-rule="evenodd" d="M9.00033 2.33317C5.31843 2.33317 2.33366 5.31794 2.33366 8.99984C2.33366 12.6817 5.31843 15.6665 9.00033 15.6665C12.6822 15.6665 15.667 12.6817 15.667 8.99984C15.667 5.31794 12.6822 2.33317 9.00033 2.33317ZM0.666992 8.99984C0.666992 4.39746 4.39795 0.666504 9.00033 0.666504C13.6027 0.666504 17.3337 4.39746 17.3337 8.99984C17.3337 13.6022 13.6027 17.3332 9.00033 17.3332C4.39795 17.3332 0.666992 13.6022 0.666992 8.99984Z" fill="#FFF2F2"/>
</svg>
