<svg width="14" height="12" viewBox="0 0 14 12" fill="none" xmlns="http://www.w3.org/2000/svg">
<path fill-rule="evenodd" clip-rule="evenodd" d="M1.81481 0C0.81252 0 0 0.867879 0 1.93846V10.0615C0 11.1321 0.812521 12 1.81481 12H12.1852C13.1875 12 14 11.1321 14 10.0615V1.93846C14 0.867877 13.1875 0 12.1852 0H1.81481ZM1.55556 2.59878V10.0615C1.55556 10.2145 1.67163 10.3385 1.81481 10.3385H12.1852C12.3284 10.3385 12.4444 10.2145 12.4444 10.0615V2.59878L8.10241 6.14538C7.4517 6.67689 6.5483 6.67689 5.89759 6.14538L1.55556 2.59878ZM11.0311 1.66154H2.96891L6.84251 4.82553C6.93547 4.90145 7.06453 4.90146 7.15749 4.82553L11.0311 1.66154Z" fill="white"/>
</svg>
