<svg width="14" height="14" viewBox="0 0 14 14" fill="none" xmlns="http://www.w3.org/2000/svg">
<path fill-rule="evenodd" clip-rule="evenodd" d="M8.35962 0.361179C8.85882 0.12403 9.39851 0 9.94677 0C10.495 0 11.0347 0.12403 11.5339 0.361179C12.0327 0.598114 12.4784 0.94185 12.8489 1.36685C13.2193 1.79142 13.5085 2.28995 13.7043 2.83174C13.9001 3.37364 14 3.95151 14 4.53314C14 5.11477 13.9001 5.69265 13.7043 6.23454C13.5085 6.77645 13.2192 7.27508 12.8487 7.69971L7.58599 13.7335C7.43828 13.9028 7.22455 14 6.99984 14C6.77513 14 6.5614 13.9028 6.41369 13.7335L1.15089 7.69957C0.404582 6.84391 0 5.70357 0 4.53314C0 3.36271 0.404582 2.22238 1.15089 1.36671C1.90015 0.507674 2.94102 0.000365001 4.05291 0.000365001C5.1648 0.000365001 6.20567 0.507674 6.95493 1.36671C6.97077 1.38488 6.98576 1.40377 6.99984 1.42331C7.01389 1.40382 7.02883 1.38497 7.04463 1.36685C7.41515 0.94185 7.86088 0.598115 8.35962 0.361179ZM9.94677 1.55556C9.63478 1.55556 9.32265 1.62585 9.02712 1.76624C8.74535 1.9001 8.48138 2.09651 8.25167 2.35023L7.65257 3.2748C7.5092 3.49606 7.26349 3.62963 6.99984 3.62963C6.73619 3.62963 6.49049 3.49606 6.34712 3.2748L5.74806 2.3503C5.27362 1.82644 4.66333 1.55592 4.05291 1.55592C3.42756 1.55592 2.80234 1.83984 2.32319 2.3892C1.84109 2.94194 1.55556 3.7118 1.55556 4.53314C1.55556 5.35449 1.84109 6.12435 2.32319 6.67709L6.99984 12.039L11.6765 6.67709C11.9144 6.40446 12.1079 6.0751 12.2414 5.70583C12.3748 5.33656 12.4444 4.93781 12.4444 4.53314C12.4444 4.12848 12.3748 3.72973 12.2414 3.36045C12.1079 2.99119 11.9145 2.66196 11.6766 2.38934C11.439 2.11676 11.1624 1.90685 10.8664 1.76624C10.5709 1.62585 10.2588 1.55556 9.94677 1.55556Z" fill="#EFF9FF"/>
</svg>
