<svg width="71" height="71" viewBox="0 0 71 71" fill="none" xmlns="http://www.w3.org/2000/svg">
<rect x="38.7881" y="70.3032" width="54.8538" height="0.685673" transform="rotate(-135 38.7881 70.3032)" fill="url(#paint0_linear_853_17623)"/>
<rect x="39.7578" y="69.333" width="54.8538" height="0.685673" transform="rotate(-135 39.7578 69.333)" fill="url(#paint1_linear_853_17623)"/>
<rect x="40.7275" y="68.3638" width="54.8538" height="0.685673" transform="rotate(-135 40.7275 68.3638)" fill="url(#paint2_linear_853_17623)"/>
<rect x="41.6973" y="67.3936" width="54.8538" height="0.685673" transform="rotate(-135 41.6973 67.3936)" fill="url(#paint3_linear_853_17623)"/>
<rect x="42.667" y="66.4238" width="54.8538" height="0.685673" transform="rotate(-135 42.667 66.4238)" fill="url(#paint4_linear_853_17623)"/>
<rect x="43.6357" y="65.4546" width="54.8538" height="0.685673" transform="rotate(-135 43.6357 65.4546)" fill="url(#paint5_linear_853_17623)"/>
<rect x="44.6064" y="64.4849" width="54.8538" height="0.685673" transform="rotate(-135 44.6064 64.4849)" fill="url(#paint6_linear_853_17623)"/>
<rect x="45.5762" y="63.5151" width="54.8538" height="0.685673" transform="rotate(-135 45.5762 63.5151)" fill="url(#paint7_linear_853_17623)"/>
<rect x="46.5459" y="62.5449" width="54.8538" height="0.685673" transform="rotate(-135 46.5459 62.5449)" fill="url(#paint8_linear_853_17623)"/>
<rect x="47.5156" y="61.5757" width="54.8538" height="0.685673" transform="rotate(-135 47.5156 61.5757)" fill="url(#paint9_linear_853_17623)"/>
<rect x="48.4844" y="60.606" width="54.8538" height="0.685673" transform="rotate(-135 48.4844 60.606)" fill="url(#paint10_linear_853_17623)"/>
<rect x="49.4541" y="59.6362" width="54.8538" height="0.685673" transform="rotate(-135 49.4541 59.6362)" fill="url(#paint11_linear_853_17623)"/>
<rect x="50.4238" y="58.667" width="54.8538" height="0.685673" transform="rotate(-135 50.4238 58.667)" fill="url(#paint12_linear_853_17623)"/>
<rect x="51.3945" y="57.6963" width="54.8538" height="0.685673" transform="rotate(-135 51.3945 57.6963)" fill="url(#paint13_linear_853_17623)"/>
<rect x="52.3633" y="56.7271" width="54.8538" height="0.685673" transform="rotate(-135 52.3633 56.7271)" fill="url(#paint14_linear_853_17623)"/>
<rect x="53.333" y="55.7578" width="54.8538" height="0.685673" transform="rotate(-135 53.333 55.7578)" fill="url(#paint15_linear_853_17623)"/>
<rect x="54.3027" y="54.7881" width="54.8538" height="0.685673" transform="rotate(-135 54.3027 54.7881)" fill="url(#paint16_linear_853_17623)"/>
<rect x="55.2725" y="53.8179" width="54.8538" height="0.685673" transform="rotate(-135 55.2725 53.8179)" fill="url(#paint17_linear_853_17623)"/>
<rect x="56.2422" y="52.8477" width="54.8538" height="0.685673" transform="rotate(-135 56.2422 52.8477)" fill="url(#paint18_linear_853_17623)"/>
<rect x="57.2119" y="51.8794" width="54.8538" height="0.685673" transform="rotate(-135 57.2119 51.8794)" fill="url(#paint19_linear_853_17623)"/>
<rect x="58.1816" y="50.9092" width="54.8538" height="0.685673" transform="rotate(-135 58.1816 50.9092)" fill="url(#paint20_linear_853_17623)"/>
<rect x="59.1514" y="49.939" width="54.8538" height="0.685673" transform="rotate(-135 59.1514 49.939)" fill="url(#paint21_linear_853_17623)"/>
<rect x="60.1211" y="48.9692" width="54.8538" height="0.685673" transform="rotate(-135 60.1211 48.9692)" fill="url(#paint22_linear_853_17623)"/>
<rect x="61.0908" y="47.9995" width="54.8538" height="0.685673" transform="rotate(-135 61.0908 47.9995)" fill="url(#paint23_linear_853_17623)"/>
<rect x="62.0605" y="47.0303" width="54.8538" height="0.685673" transform="rotate(-135 62.0605 47.0303)" fill="url(#paint24_linear_853_17623)"/>
<rect x="63.0303" y="46.061" width="54.8538" height="0.685673" transform="rotate(-135 63.0303 46.061)" fill="url(#paint25_linear_853_17623)"/>
<rect x="64" y="45.0908" width="54.8538" height="0.685673" transform="rotate(-135 64 45.0908)" fill="url(#paint26_linear_853_17623)"/>
<rect x="64.9697" y="44.1211" width="54.8538" height="0.685673" transform="rotate(-135 64.9697 44.1211)" fill="url(#paint27_linear_853_17623)"/>
<rect x="65.9395" y="43.1509" width="54.8538" height="0.685673" transform="rotate(-135 65.9395 43.1509)" fill="url(#paint28_linear_853_17623)"/>
<rect x="66.9092" y="42.1821" width="54.8538" height="0.685673" transform="rotate(-135 66.9092 42.1821)" fill="url(#paint29_linear_853_17623)"/>
<rect x="67.8789" y="41.2119" width="54.8538" height="0.685673" transform="rotate(-135 67.8789 41.2119)" fill="url(#paint30_linear_853_17623)"/>
<rect x="68.8486" y="40.2422" width="54.8538" height="0.685673" transform="rotate(-135 68.8486 40.2422)" fill="url(#paint31_linear_853_17623)"/>
<rect x="69.8184" y="39.2729" width="54.8538" height="0.685673" transform="rotate(-135 69.8184 39.2729)" fill="url(#paint32_linear_853_17623)"/>
<defs>
<linearGradient id="paint0_linear_853_17623" x1="92.9562" y1="70.3032" x2="92.9398" y2="71.5526" gradientUnits="userSpaceOnUse">
<stop stop-color="white"/>
<stop offset="1" stop-color="white" stop-opacity="0"/>
</linearGradient>
<linearGradient id="paint1_linear_853_17623" x1="93.926" y1="69.333" x2="93.9095" y2="70.5824" gradientUnits="userSpaceOnUse">
<stop stop-color="white"/>
<stop offset="1" stop-color="white" stop-opacity="0"/>
</linearGradient>
<linearGradient id="paint2_linear_853_17623" x1="94.8957" y1="68.3638" x2="94.8793" y2="69.6132" gradientUnits="userSpaceOnUse">
<stop stop-color="white"/>
<stop offset="1" stop-color="white" stop-opacity="0"/>
</linearGradient>
<linearGradient id="paint3_linear_853_17623" x1="95.8654" y1="67.3936" x2="95.849" y2="68.6429" gradientUnits="userSpaceOnUse">
<stop stop-color="white"/>
<stop offset="1" stop-color="white" stop-opacity="0"/>
</linearGradient>
<linearGradient id="paint4_linear_853_17623" x1="96.8351" y1="66.4238" x2="96.8187" y2="67.6732" gradientUnits="userSpaceOnUse">
<stop stop-color="white"/>
<stop offset="1" stop-color="white" stop-opacity="0"/>
</linearGradient>
<linearGradient id="paint5_linear_853_17623" x1="97.8039" y1="65.4546" x2="97.7875" y2="66.704" gradientUnits="userSpaceOnUse">
<stop stop-color="white"/>
<stop offset="1" stop-color="white" stop-opacity="0"/>
</linearGradient>
<linearGradient id="paint6_linear_853_17623" x1="98.7746" y1="64.4849" x2="98.7582" y2="65.7343" gradientUnits="userSpaceOnUse">
<stop stop-color="white"/>
<stop offset="1" stop-color="white" stop-opacity="0"/>
</linearGradient>
<linearGradient id="paint7_linear_853_17623" x1="99.7443" y1="63.5151" x2="99.7279" y2="64.7645" gradientUnits="userSpaceOnUse">
<stop stop-color="white"/>
<stop offset="1" stop-color="white" stop-opacity="0"/>
</linearGradient>
<linearGradient id="paint8_linear_853_17623" x1="100.714" y1="62.5449" x2="100.698" y2="63.7943" gradientUnits="userSpaceOnUse">
<stop stop-color="white"/>
<stop offset="1" stop-color="white" stop-opacity="0"/>
</linearGradient>
<linearGradient id="paint9_linear_853_17623" x1="101.684" y1="61.5757" x2="101.667" y2="62.8251" gradientUnits="userSpaceOnUse">
<stop stop-color="white"/>
<stop offset="1" stop-color="white" stop-opacity="0"/>
</linearGradient>
<linearGradient id="paint10_linear_853_17623" x1="102.653" y1="60.606" x2="102.636" y2="61.8554" gradientUnits="userSpaceOnUse">
<stop stop-color="white"/>
<stop offset="1" stop-color="white" stop-opacity="0"/>
</linearGradient>
<linearGradient id="paint11_linear_853_17623" x1="103.622" y1="59.6362" x2="103.606" y2="60.8856" gradientUnits="userSpaceOnUse">
<stop stop-color="white"/>
<stop offset="1" stop-color="white" stop-opacity="0"/>
</linearGradient>
<linearGradient id="paint12_linear_853_17623" x1="104.592" y1="58.667" x2="104.576" y2="59.9164" gradientUnits="userSpaceOnUse">
<stop stop-color="white"/>
<stop offset="1" stop-color="white" stop-opacity="0"/>
</linearGradient>
<linearGradient id="paint13_linear_853_17623" x1="105.563" y1="57.6963" x2="105.546" y2="58.9457" gradientUnits="userSpaceOnUse">
<stop stop-color="white"/>
<stop offset="1" stop-color="white" stop-opacity="0"/>
</linearGradient>
<linearGradient id="paint14_linear_853_17623" x1="106.531" y1="56.727" x2="106.515" y2="57.9764" gradientUnits="userSpaceOnUse">
<stop stop-color="white"/>
<stop offset="1" stop-color="white" stop-opacity="0"/>
</linearGradient>
<linearGradient id="paint15_linear_853_17623" x1="107.501" y1="55.7578" x2="107.485" y2="57.0072" gradientUnits="userSpaceOnUse">
<stop stop-color="white"/>
<stop offset="1" stop-color="white" stop-opacity="0"/>
</linearGradient>
<linearGradient id="paint16_linear_853_17623" x1="108.471" y1="54.7881" x2="108.454" y2="56.0375" gradientUnits="userSpaceOnUse">
<stop stop-color="white"/>
<stop offset="1" stop-color="white" stop-opacity="0"/>
</linearGradient>
<linearGradient id="paint17_linear_853_17623" x1="109.441" y1="53.8179" x2="109.424" y2="55.0673" gradientUnits="userSpaceOnUse">
<stop stop-color="white"/>
<stop offset="1" stop-color="white" stop-opacity="0"/>
</linearGradient>
<linearGradient id="paint18_linear_853_17623" x1="110.41" y1="52.8477" x2="110.394" y2="54.0971" gradientUnits="userSpaceOnUse">
<stop stop-color="white"/>
<stop offset="1" stop-color="white" stop-opacity="0"/>
</linearGradient>
<linearGradient id="paint19_linear_853_17623" x1="111.38" y1="51.8794" x2="111.364" y2="53.1288" gradientUnits="userSpaceOnUse">
<stop stop-color="white"/>
<stop offset="1" stop-color="white" stop-opacity="0"/>
</linearGradient>
<linearGradient id="paint20_linear_853_17623" x1="112.35" y1="50.9092" x2="112.333" y2="52.1586" gradientUnits="userSpaceOnUse">
<stop stop-color="white"/>
<stop offset="1" stop-color="white" stop-opacity="0"/>
</linearGradient>
<linearGradient id="paint21_linear_853_17623" x1="113.32" y1="49.939" x2="113.303" y2="51.1884" gradientUnits="userSpaceOnUse">
<stop stop-color="white"/>
<stop offset="1" stop-color="white" stop-opacity="0"/>
</linearGradient>
<linearGradient id="paint22_linear_853_17623" x1="114.289" y1="48.9692" x2="114.273" y2="50.2186" gradientUnits="userSpaceOnUse">
<stop stop-color="white"/>
<stop offset="1" stop-color="white" stop-opacity="0"/>
</linearGradient>
<linearGradient id="paint23_linear_853_17623" x1="115.259" y1="47.9995" x2="115.243" y2="49.2489" gradientUnits="userSpaceOnUse">
<stop stop-color="white"/>
<stop offset="1" stop-color="white" stop-opacity="0"/>
</linearGradient>
<linearGradient id="paint24_linear_853_17623" x1="116.229" y1="47.0303" x2="116.212" y2="48.2797" gradientUnits="userSpaceOnUse">
<stop stop-color="white"/>
<stop offset="1" stop-color="white" stop-opacity="0"/>
</linearGradient>
<linearGradient id="paint25_linear_853_17623" x1="117.198" y1="46.061" x2="117.182" y2="47.3104" gradientUnits="userSpaceOnUse">
<stop stop-color="white"/>
<stop offset="1" stop-color="white" stop-opacity="0"/>
</linearGradient>
<linearGradient id="paint26_linear_853_17623" x1="118.168" y1="45.0908" x2="118.152" y2="46.3402" gradientUnits="userSpaceOnUse">
<stop stop-color="white"/>
<stop offset="1" stop-color="white" stop-opacity="0"/>
</linearGradient>
<linearGradient id="paint27_linear_853_17623" x1="119.138" y1="44.1211" x2="119.121" y2="45.3705" gradientUnits="userSpaceOnUse">
<stop stop-color="white"/>
<stop offset="1" stop-color="white" stop-opacity="0"/>
</linearGradient>
<linearGradient id="paint28_linear_853_17623" x1="120.108" y1="43.1509" x2="120.091" y2="44.4003" gradientUnits="userSpaceOnUse">
<stop stop-color="white"/>
<stop offset="1" stop-color="white" stop-opacity="0"/>
</linearGradient>
<linearGradient id="paint29_linear_853_17623" x1="121.077" y1="42.1821" x2="121.061" y2="43.4315" gradientUnits="userSpaceOnUse">
<stop stop-color="white"/>
<stop offset="1" stop-color="white" stop-opacity="0"/>
</linearGradient>
<linearGradient id="paint30_linear_853_17623" x1="122.047" y1="41.2119" x2="122.031" y2="42.4613" gradientUnits="userSpaceOnUse">
<stop stop-color="white"/>
<stop offset="1" stop-color="white" stop-opacity="0"/>
</linearGradient>
<linearGradient id="paint31_linear_853_17623" x1="123.017" y1="40.2422" x2="123" y2="41.4916" gradientUnits="userSpaceOnUse">
<stop stop-color="white"/>
<stop offset="1" stop-color="white" stop-opacity="0"/>
</linearGradient>
<linearGradient id="paint32_linear_853_17623" x1="123.987" y1="39.2729" x2="123.97" y2="40.5223" gradientUnits="userSpaceOnUse">
<stop stop-color="white"/>
<stop offset="1" stop-color="white" stop-opacity="0"/>
</linearGradient>
</defs>
</svg>
