<svg width="14" height="14" viewBox="0 0 14 14" fill="none" xmlns="http://www.w3.org/2000/svg">
<path fill-rule="evenodd" clip-rule="evenodd" d="M5.08333 3.66667C5.08333 2.98341 5.28524 2.52513 5.57186 2.23852C5.85847 1.95191 6.31674 1.75 7 1.75C7.68326 1.75 8.14154 1.95191 8.42815 2.23852C8.71476 2.52513 8.91667 2.98341 8.91667 3.66667V3.67087V3.67506V3.67925V3.68344V3.68762V3.6918V3.69598V3.70015V3.70432V3.70848V3.71264V3.71679V3.72095V3.72509V3.72924V3.73338V3.73751V3.74165V3.74577V3.7499V3.75402V3.75814V3.76225V3.76636V3.77046V3.77456V3.77866V3.78275V3.78684V3.79093V3.79501V3.79909V3.80316V3.80723V3.8113V3.81536V3.81942V3.82347V3.82752V3.83157V3.83561V3.83965V3.84369V3.84772V3.85175V3.85577V3.85979V3.86381V3.86782V3.87183V3.87583V3.87983V3.88383V3.88782V3.89181V3.8958V3.89978V3.90375V3.90773V3.9117V3.91566V3.91963V3.92358V3.92754V3.93149V3.93543V3.93938V3.94332V3.94725V3.95118V3.95511V3.95903V3.96295V3.96687V3.97078V3.97469V3.9786V3.9825V3.98639V3.99029V3.99418V3.99806V4.00194V4.00582V4.0097V4.01357V4.01743V4.0213V4.02516V4.02901V4.03286V4.03671V4.04055V4.04439V4.04823V4.05206V4.05589V4.05972V4.06354V4.06735V4.07117V4.07498V4.07878V4.08258V4.08638V4.09018V4.09397V4.09776V4.10154V4.10532V4.10909V4.11287V4.11663V4.1204V4.12416V4.12792V4.13167V4.13542V4.13916V4.14291V4.14664V4.15038V4.15411V4.15784V4.16156V4.16528V4.16899V4.17271V4.17641V4.18012V4.18382V4.18752V4.19121V4.1949V4.19858V4.20226V4.20594V4.20962V4.21329V4.21696V4.22062V4.22428V4.22793V4.23159V4.23523V4.23888V4.24252V4.24616V4.24979V4.25342V4.25705V4.26067V4.26429V4.2679V4.27151V4.27512V4.27872V4.28232V4.28592V4.28951V4.2931V4.29669V4.30027V4.30385V4.30742V4.31099V4.31456V4.31812V4.32168V4.32524V4.32879V4.33234V4.33588V4.33942V4.34296V4.34649V4.35002V4.35355V4.35707V4.36059V4.36411V4.36762V4.37113V4.37463V4.37813V4.38163V4.38512V4.38861V4.3921V4.39558V4.39906V4.40253V4.406V4.40947V4.41293V4.41639V4.41985V4.4233V4.42675V4.4302V4.43364V4.43708V4.44051V4.44394V4.44737V4.4508V4.45422V4.45763V4.46105V4.46446V4.46786V4.47126V4.47466V4.47806V4.48145V4.48483V4.48822V4.4916V4.49498V4.49835V4.50172V4.50508V4.50845V4.5118V4.51516V4.51851V4.52186V4.5252V4.52854V4.53188V4.53521V4.53854V4.54187V4.54519V4.54851V4.55182V4.55514V4.55844V4.56175V4.56505V4.56835V4.57164V4.57493V4.57822V4.5815V4.58478V4.58806V4.59133V4.5946V4.59786V4.60112V4.60438V4.60763V4.61089V4.61413V4.61738V4.62062V4.62385V4.62709V4.63031V4.63354V4.63676V4.63998V4.6432V4.64641V4.64962V4.65282V4.65602V4.65922V4.66241V4.6656V4.66879V4.67197V4.67515V4.67833V4.6815V4.68467V4.68783V4.691V4.69415V4.69731V4.70046V4.70361V4.70675V4.70989V4.71303V4.71616V4.71929V4.72242V4.72554V4.72866V4.73178V4.73489V4.738V4.7411V4.74421V4.7473V4.7504V4.75349V4.75658V4.75966V4.76274V4.76582V4.76889V4.77196V4.77503V4.77809V4.78115V4.78421V4.78726V4.79031V4.79336V4.7964V4.79944V4.80247V4.80551V4.80853V4.81156V4.81458V4.8176V4.82061V4.82362V4.82663V4.82964V4.83264V4.83563V4.83863V4.84162V4.8446V4.84759V4.85057V4.85354V4.85651V4.85948V4.86245V4.86541V4.86837V4.87133V4.87428V4.87723V4.88017V4.88311V4.88605V4.88899V4.89192V4.89485V4.89777V4.90069V4.90361V4.90652V4.90943V4.91234V4.91524V4.91814V4.92104V4.92393V4.92682V4.92971V4.93259V4.93547V4.93835V4.94122V4.94409V4.94696V4.94982V4.95268V4.95553V4.95839V4.96124V4.96408V4.96692V4.96976V4.9726V4.97543V4.97826V4.98108V4.9839V4.98672V4.98954V4.99235V4.99516V4.99796V5.00076V5.00356V5.00635V5.00915V5.01193V5.01472V5.0175V5.02028V5.02305V5.02582V5.02859V5.03135V5.03411V5.03687V5.03962V5.04237V5.04512V5.04786V5.0506V5.05334V5.05607V5.0588V5.06153V5.06426V5.06698V5.06969V5.07241V5.07512V5.07782V5.08052V5.08322V5.08592V5.08861V5.0913V5.09399V5.09667V5.09935V5.10203V5.1047V5.10737V5.11004V5.1127V5.11536V5.11802V5.12067V5.12332V5.12597V5.12861V5.13125V5.13389V5.13652V5.13915V5.14178V5.1444V5.14702V5.14964V5.15225V5.15486V5.15747V5.16007V5.16267V5.16527V5.16786V5.17045V5.17304V5.17562V5.1782V5.18078V5.18335V5.18592V5.18849V5.19105V5.19361V5.19617V5.19872V5.20127V5.20382V5.20636V5.2089V5.21144V5.21397V5.2165V5.21903V5.22155V5.22408V5.22659V5.22911V5.23162V5.23413V5.23663V5.23913V5.24163V5.24412V5.24661V5.2491V5.25159V5.25407V5.25655V5.25902V5.26149V5.26396V5.26643V5.26889V5.27135V5.2738V5.27626V5.2787V5.28115V5.28359V5.28603V5.28847V5.2909V5.29333V5.29576V5.29818V5.3006V5.30302V5.30543V5.30784V5.31025V5.31265V5.31505V5.31745V5.31984V5.32223V5.32462V5.327V5.32938V5.33176V5.33414C8.91667 5.47106 8.80611 5.58274 8.66778 5.58333H5.33223C5.19432 5.58274 5.08333 5.47105 5.08333 5.3337L5.08333 3.66667ZM3.601 5.58333C3.58936 5.5018 3.58333 5.41846 3.58333 5.3337L3.58333 3.66667C3.58334 2.68288 3.88123 1.80782 4.5112 1.17786C5.14116 0.5479 6.01621 0.25 7 0.25C7.98379 0.25 8.85885 0.5479 9.48881 1.17786C10.1188 1.80782 10.4167 2.68288 10.4167 3.66667V3.67087V3.67506V3.67925V3.68344V3.68762V3.6918V3.69598V3.70015V3.70432V3.70848V3.71264V3.71679V3.72095V3.72509V3.72924V3.73338V3.73751V3.74165V3.74577V3.7499V3.75402V3.75814V3.76225V3.76636V3.77046V3.77456V3.77866V3.78275V3.78684V3.79093V3.79501V3.79909V3.80316V3.80723V3.8113V3.81536V3.81942V3.82347V3.82752V3.83157V3.83561V3.83965V3.84369V3.84772V3.85175V3.85577V3.85979V3.86381V3.86782V3.87183V3.87583V3.87983V3.88383V3.88782V3.89181V3.8958V3.89978V3.90375V3.90773V3.9117V3.91566V3.91963V3.92358V3.92754V3.93149V3.93543V3.93938V3.94332V3.94725V3.95118V3.95511V3.95903V3.96295V3.96687V3.97078V3.97469V3.9786V3.9825V3.98639V3.99029V3.99418V3.99806V4.00194V4.00582V4.0097V4.01357V4.01743V4.0213V4.02516V4.02901V4.03286V4.03671V4.04055V4.04439V4.04823V4.05206V4.05589V4.05972V4.06354V4.06735V4.07117V4.07498V4.07878V4.08258V4.08638V4.09018V4.09397V4.09776V4.10154V4.10532V4.10909V4.11287V4.11663V4.1204V4.12416V4.12792V4.13167V4.13542V4.13916V4.14291V4.14664V4.15038V4.15411V4.15784V4.16156V4.16528V4.16899V4.17271V4.17641V4.18012V4.18382V4.18752V4.19121V4.1949V4.19858V4.20226V4.20594V4.20962V4.21329V4.21696V4.22062V4.22428V4.22793V4.23159V4.23523V4.23888V4.24252V4.24616V4.24979V4.25342V4.25705V4.26067V4.26429V4.2679V4.27151V4.27512V4.27872V4.28232V4.28592V4.28951V4.2931V4.29669V4.30027V4.30385V4.30742V4.31099V4.31456V4.31812V4.32168V4.32524V4.32879V4.33234V4.33588V4.33942V4.34296V4.34649V4.35002V4.35355V4.35707V4.36059V4.36411V4.36762V4.37113V4.37463V4.37813V4.38163V4.38512V4.38861V4.3921V4.39558V4.39906V4.40253V4.406V4.40947V4.41293V4.41639V4.41985V4.4233V4.42675V4.4302V4.43364V4.43708V4.44051V4.44394V4.44737V4.4508V4.45422V4.45763V4.46105V4.46446V4.46786V4.47126V4.47466V4.47806V4.48145V4.48483V4.48822V4.4916V4.49498V4.49835V4.50172V4.50508V4.50845V4.5118V4.51516V4.51851V4.52186V4.5252V4.52854V4.53188V4.53521V4.53854V4.54187V4.54519V4.54851V4.55182V4.55514V4.55844V4.56175V4.56505V4.56835V4.57164V4.57493V4.57822V4.5815V4.58478V4.58806V4.59133V4.5946V4.59786V4.60112V4.60438V4.60763V4.61089V4.61413V4.61738V4.62062V4.62385V4.62709V4.63031V4.63354V4.63676V4.63998V4.6432V4.64641V4.64962V4.65282V4.65602V4.65922V4.66241V4.6656V4.66879V4.67197V4.67515V4.67833V4.6815V4.68467V4.68783V4.691V4.69415V4.69731V4.70046V4.70361V4.70675V4.70989V4.71303V4.71616V4.71929V4.72242V4.72554V4.72866V4.73178V4.73489V4.738V4.7411V4.74421V4.7473V4.7504V4.75349V4.75658V4.75966V4.76274V4.76582V4.76889V4.77196V4.77503V4.77809V4.78115V4.78421V4.78726V4.79031V4.79336V4.7964V4.79944V4.80247V4.80551V4.80853V4.81156V4.81458V4.8176V4.82061V4.82362V4.82663V4.82964V4.83264V4.83563V4.83863V4.84162V4.8446V4.84759V4.85057V4.85354V4.85651V4.85948V4.86245V4.86541V4.86837V4.87133V4.87428V4.87723V4.88017V4.88311V4.88605V4.88899V4.89192V4.89485V4.89777V4.90069V4.90361V4.90652V4.90943V4.91234V4.91524V4.91814V4.92104V4.92393V4.92682V4.92971V4.93259V4.93547V4.93835V4.94122V4.94409V4.94696V4.94982V4.95268V4.95553V4.95839V4.96124V4.96408V4.96692V4.96976V4.9726V4.97543V4.97826V4.98108V4.9839V4.98672V4.98954V4.99235V4.99516V4.99796V5.00076V5.00356V5.00635V5.00915V5.01193V5.01472V5.0175V5.02028V5.02305V5.02582V5.02859V5.03135V5.03411V5.03687V5.03962V5.04237V5.04512V5.04786V5.0506V5.05334V5.05607V5.0588V5.06153V5.06426V5.06698V5.06969V5.07241V5.07512V5.07782V5.08052V5.08322V5.08592V5.08861V5.0913V5.09399V5.09667V5.09935V5.10203V5.1047V5.10737V5.11004V5.1127V5.11536V5.11802V5.12067V5.12332V5.12597V5.12861V5.13125V5.13389V5.13652V5.13915V5.14178V5.1444V5.14702V5.14964V5.15225V5.15486V5.15747V5.16007V5.16267V5.16527V5.16786V5.17045V5.17304V5.17562V5.1782V5.18078V5.18335V5.18592V5.18849V5.19105V5.19361V5.19617V5.19872V5.20127V5.20382V5.20636V5.2089V5.21144V5.21397V5.2165V5.21903V5.22155V5.22408V5.22659V5.22911V5.23162V5.23413V5.23663V5.23913V5.24163V5.24412V5.24661V5.2491V5.25159V5.25407V5.25655V5.25902V5.26149V5.26396V5.26643V5.26889V5.27135V5.2738V5.27626V5.2787V5.28115V5.28359V5.28603V5.28847V5.2909V5.29333V5.29576V5.29818V5.3006V5.30302V5.30543V5.30784V5.31025V5.31265V5.31505V5.31745V5.31984V5.32223V5.32462V5.327V5.32938V5.33176V5.33414C10.4167 5.41875 10.4107 5.50195 10.3991 5.58333H11C12.5188 5.58333 13.75 6.81455 13.75 8.33333V11C13.75 12.5188 12.5188 13.75 11 13.75H3C1.48122 13.75 0.25 12.5188 0.25 11V8.33333C0.25 6.81455 1.48122 5.58333 3 5.58333H3.601ZM5.33041 7.08333H3C2.30964 7.08333 1.75 7.64298 1.75 8.33333V11C1.75 11.6904 2.30964 12.25 3 12.25H11C11.6904 12.25 12.25 11.6904 12.25 11V8.33333C12.25 7.64298 11.6904 7.08333 11 7.08333H8.66959C8.66861 7.08333 8.66764 7.08334 8.66667 7.08334H5.33333C5.33236 7.08334 5.33139 7.08333 5.33041 7.08333Z" fill="white"/>
</svg>
