<svg width="18" height="21" viewBox="0 0 18 21" fill="none" xmlns="http://www.w3.org/2000/svg">
<path fill-rule="evenodd" clip-rule="evenodd" d="M15.9643 14H2.03685C2.2867 12.3653 2.87939 9.28474 4.0623 6.62341C5.29953 3.83987 6.95319 2 9.10459 2C11.2512 2 12.8705 3.83508 14.0622 6.62328C15.2014 9.28863 15.7426 12.3722 15.9643 14ZM9.10459 0C5.60959 0 3.47206 2.97066 2.20544 5.82031C0.898916 8.75976 0.275051 12.0923 0.0225071 13.7644C-0.161942 14.9855 0.813185 16 1.99893 16H15.9991C17.1691 16 18.1453 15.0092 17.9821 13.7953C17.7584 12.1307 17.19 8.79313 15.9305 5.84629C14.7098 2.99017 12.613 0 9.10459 0ZM4.11681 18.6092C4.3357 18.101 4.9311 17.8643 5.44628 18.0799L5.44942 18.0812L5.46579 18.0879C5.48099 18.0942 5.50461 18.1038 5.5359 18.1163C5.59851 18.1413 5.69162 18.1777 5.80923 18.2219C6.04507 18.3104 6.3763 18.4286 6.75576 18.5464C7.54154 18.7904 8.43247 19.0003 9.10483 19.0003C9.77719 19.0003 10.6681 18.7904 11.4539 18.5464C11.8334 18.4286 12.1646 18.3104 12.4004 18.2219C12.518 18.1777 12.6111 18.1413 12.6738 18.1163C12.705 18.1038 12.7287 18.0942 12.7439 18.0879L12.7602 18.0812L12.7636 18.0798C13.2788 17.864 13.8739 18.1009 14.0928 18.6092C14.3118 19.1175 14.0713 19.7047 13.556 19.9207C13.5562 19.9207 13.5563 19.9206 13.1598 19.0003L13.556 19.9207L13.5527 19.9221L13.5456 19.9251L13.5214 19.935C13.5008 19.9435 13.4715 19.9553 13.4343 19.9702C13.36 19.9999 13.2536 20.0415 13.1215 20.0911C12.8579 20.1901 12.4883 20.3219 12.0627 20.4541C11.2383 20.7101 10.1017 21.0003 9.10483 21.0003C8.10795 21.0003 6.97138 20.7101 6.14697 20.4541C5.72133 20.3219 5.35179 20.1901 5.08814 20.0911C4.956 20.0415 4.84968 19.9999 4.77531 19.9702C4.7381 19.9553 4.70883 19.9435 4.68827 19.935L4.66403 19.9251L4.65697 19.9221L4.65338 19.9206L5.04983 19.0003C4.65338 19.9206 4.65324 19.9206 4.65338 19.9206C4.13809 19.7046 3.89786 19.1175 4.11681 18.6092Z" fill="white"/>
</svg>
