<svg width="10" height="14" viewBox="0 0 10 14" fill="none" xmlns="http://www.w3.org/2000/svg">
<path fill-rule="evenodd" clip-rule="evenodd" d="M4.99992 8.52937C7.47558 8.52937 9.38589 6.56829 9.38589 4.26445C9.38589 1.96062 7.47558 -0.000457764 4.99992 -0.000457764C2.52426 -0.000457764 0.613957 1.96062 0.613957 4.26445C0.613957 6.56829 2.52426 8.52937 4.99992 8.52937ZM7.80694 4.26445C7.80694 5.79147 6.5502 7.02937 4.99992 7.02937C3.44965 7.02937 2.1929 5.79147 2.1929 4.26445C2.1929 2.73744 3.44965 1.49954 4.99992 1.49954C6.5502 1.49954 7.80694 2.73744 7.80694 4.26445ZM1.57895 11.5224C1.57895 11.5249 1.57912 11.5244 1.58022 11.5211C1.58944 11.4937 1.6636 11.2728 2.24427 11.0128C2.83484 10.7483 3.76511 10.5443 5 10.5443C6.2349 10.5443 7.16517 10.7483 7.75574 11.0128C8.33641 11.2728 8.41056 11.4937 8.41978 11.5211C8.42088 11.5244 8.42105 11.5249 8.42105 11.5224L8.42105 12.8725V13.1627V13.2294V13.2453V13.2492V13.2502V13.2504V13.2505V13.2505C8.42105 13.6647 8.77451 14.0005 9.21053 14.0005C9.64654 14.0005 10 13.6647 10 13.2505V13.2505V13.2504V13.2502V13.2492V13.2453V13.2294V13.1627V12.8725V11.5224C10 10.6348 9.22602 10.0129 8.42893 9.65595C7.57229 9.27236 6.39729 9.04434 5 9.04434C3.60272 9.04434 2.42772 9.27236 1.57107 9.65595C0.773991 10.0129 0 10.6348 0 11.5224V11.5275V11.5325V11.5376V11.5427V11.5477V11.5528V11.5578V11.5629V11.568V11.573V11.5781V11.5832V11.5882V11.5933V11.5983V11.6034V11.6084V11.6135V11.6186V11.6236V11.6287V11.6337V11.6388V11.6438V11.6489V11.6539V11.659V11.664V11.6691V11.6741V11.6792V11.6842V11.6892V11.6943V11.6993V11.7044V11.7094V11.7144V11.7195V11.7245V11.7295V11.7346V11.7396V11.7446V11.7496V11.7547V11.7597V11.7647V11.7697V11.7747V11.7798V11.7848V11.7898V11.7948V11.7998V11.8048V11.8098V11.8148V11.8198V11.8248V11.8298V11.8348V11.8398V11.8447V11.8497V11.8547V11.8597V11.8647V11.8696V11.8746V11.8796V11.8845V11.8895V11.8944V11.8994V11.9044V11.9093V11.9142V11.9192V11.9241V11.9291V11.934V11.9389V11.9439V11.9488V11.9537V11.9586V11.9635V11.9685V11.9734V11.9783V11.9832V11.9881V11.993V11.9978V12.0027V12.0076V12.0125V12.0174V12.0222V12.0271V12.032V12.0368V12.0417V12.0465V12.0514V12.0562V12.0611V12.0659V12.0707V12.0756V12.0804V12.0852V12.09V12.0948V12.0996V12.1044V12.1092V12.114V12.1188V12.1236V12.1284V12.1331V12.1379V12.1427V12.1474V12.1522V12.1569V12.1617V12.1664V12.1712V12.1759V12.1806V12.1853V12.19V12.1947V12.1994V12.2041V12.2088V12.2135V12.2182V12.2229V12.2276V12.2322V12.2369V12.2415V12.2462V12.2508V12.2555V12.2601V12.2647V12.2693V12.2739V12.2786V12.2832V12.2878V12.2923V12.2969V12.3015V12.3061V12.3106V12.3152V12.3198V12.3243V12.3288V12.3334V12.3379V12.3424V12.3469V12.3514V12.3559V12.3604V12.3649V12.3694V12.3739V12.3784V12.3828V12.3873V12.3917V12.3962V12.4006V12.405V12.4094V12.4138V12.4183V12.4226V12.427V12.4314V12.4358V12.4402V12.4445V12.4489V12.4532V12.4576V12.4619V12.4662V12.4705V12.4749V12.4792V12.4835V12.4877V12.492V12.4963V12.5006V12.5048V12.5091V12.5133V12.5175V12.5217V12.526V12.5302V12.5344V12.5386V12.5427V12.5469V12.5511V12.5552V12.5594V12.5635V12.5677V12.5718V12.5759V12.58V12.5841V12.5882V12.5923V12.5963V12.6004V12.6045V12.6085V12.6125V12.6166V12.6206V12.6246V12.6286V12.6326V12.6366V12.6405V12.6445V12.6485V12.6524V12.6564V12.6603V12.6642V12.6681V12.672V12.6759V12.6798V12.6836V12.6875V12.6914V12.6952V12.699V12.7028V12.7067V12.7105V12.7143V12.718V12.7218V12.7256V12.7293V12.7331V12.7368V12.7405V12.7442V12.7479V12.7516V12.7553V12.759V12.7626V12.7663V12.7699V12.7735V12.7772V12.7808V12.7844V12.788V12.7915V12.7951V12.7987V12.8022V12.8057V12.8092V12.8128V12.8163V12.8197V12.8232V12.8267V12.8301V12.8336V12.837V12.8404V12.8439V12.8473V12.8506V12.854V12.8574V12.8607V12.8641V12.8674V12.8707V12.874V12.8773V12.8806V12.8839V12.8871V12.8904V12.8936V12.8969V12.9001V12.9033V12.9065V12.9096V12.9128V12.916V12.9191V12.9222V12.9253V12.9284V12.9315V12.9346V12.9377V12.9407V12.9438V12.9468V12.9498V12.9528V12.9558V12.9588V12.9618V12.9647V12.9677V12.9706V12.9735V12.9764V12.9793V12.9822V12.985V12.9879V12.9907V12.9935V12.9963V12.9991V13.0019V13.0047V13.0075V13.0102V13.0129V13.0156V13.0183V13.021V13.0237V13.0264V13.029V13.0317V13.0343V13.0369V13.0395V13.0421V13.0446V13.0472V13.0497V13.0523V13.0548V13.0573V13.0597V13.0622V13.0647V13.0671V13.0695V13.0719V13.0743V13.0767V13.0791V13.0814V13.0838V13.0861V13.0884V13.0907V13.093V13.0953V13.0975V13.0998V13.102V13.1042V13.1064V13.1086V13.1107V13.1129V13.115V13.1171V13.1192V13.1213V13.1234V13.1254V13.1275V13.1295V13.1315V13.1335V13.1355V13.1375V13.1394V13.1413V13.1433V13.1452V13.147V13.1489V13.1508V13.1526V13.1544V13.1562V13.158V13.1598V13.1616V13.1633V13.165V13.1668V13.1685V13.1701V13.1718V13.1734V13.1751V13.1767V13.1783V13.1799V13.1814V13.183V13.1845V13.186V13.1875V13.189V13.1905V13.1919V13.1934V13.1948V13.1962V13.1976V13.1989V13.2003V13.2016V13.2029V13.2042V13.2055V13.2068V13.208V13.2093V13.2105V13.2117V13.2128V13.214V13.2151V13.2163V13.2174V13.2185V13.2195V13.2206V13.2216V13.2227V13.2237V13.2246V13.2256V13.2266V13.2275V13.2284V13.2293V13.2302V13.231V13.2319V13.2327V13.2335V13.2343V13.2351V13.2358V13.2366V13.2373V13.238V13.2386V13.2393V13.2399V13.2406V13.2412V13.2418V13.2423V13.2429V13.2434V13.2439V13.2444V13.2449V13.2453V13.2458V13.2462V13.2466V13.247V13.2473V13.2477V13.248V13.2483V13.2486V13.2488V13.2491V13.2493V13.2495V13.2497V13.2499V13.25V13.2501V13.2502V13.2503V13.2504V13.2504V13.2505C0 13.6647 0.353459 14.0005 0.789474 14.0005C1.22549 14.0005 1.57895 13.6647 1.57895 13.2505V13.2504V13.2504V13.2503V13.2502V13.2501V13.25V13.2499V13.2497V13.2495V13.2493V13.2491V13.2488V13.2486V13.2483V13.248V13.2477V13.2473V13.247V13.2466V13.2462V13.2458V13.2453V13.2449V13.2444V13.2439V13.2434V13.2429V13.2423V13.2418V13.2412V13.2406V13.2399V13.2393V13.2386V13.238V13.2373V13.2366V13.2358V13.2351V13.2343V13.2335V13.2327V13.2319V13.231V13.2302V13.2293V13.2284V13.2275V13.2266V13.2256V13.2246V13.2237V13.2227V13.2216V13.2206V13.2195V13.2185V13.2174V13.2163V13.2151V13.214V13.2128V13.2117V13.2105V13.2093V13.208V13.2068V13.2055V13.2042V13.2029V13.2016V13.2003V13.1989V13.1976V13.1962V13.1948V13.1934V13.1919V13.1905V13.189V13.1875V13.186V13.1845V13.183V13.1814V13.1799V13.1783V13.1767V13.1751V13.1734V13.1718V13.1701V13.1685V13.1668V13.165V13.1633V13.1616V13.1598V13.158V13.1562V13.1544V13.1526V13.1508V13.1489V13.147V13.1452V13.1433V13.1413V13.1394V13.1375V13.1355V13.1335V13.1315V13.1295V13.1275V13.1254V13.1234V13.1213V13.1192V13.1171V13.115V13.1129V13.1107V13.1086V13.1064V13.1042V13.102V13.0998V13.0975V13.0953V13.093V13.0907V13.0884V13.0861V13.0838V13.0814V13.0791V13.0767V13.0743V13.0719V13.0695V13.0671V13.0647V13.0622V13.0597V13.0573V13.0548V13.0523V13.0497V13.0472V13.0446V13.0421V13.0395V13.0369V13.0343V13.0317V13.029V13.0264V13.0237V13.021V13.0183V13.0156V13.0129V13.0102V13.0075V13.0047V13.0019V12.9991V12.9963V12.9935V12.9907V12.9879V12.985V12.9822V12.9793V12.9764V12.9735V12.9706V12.9677V12.9647V12.9618V12.9588V12.9558V12.9528V12.9498V12.9468V12.9438V12.9407V12.9377V12.9346V12.9315V12.9284V12.9253V12.9222V12.9191V12.916V12.9128V12.9096V12.9065V12.9033V12.9001V12.8969V12.8936V12.8904V12.8871V12.8839V12.8806V12.8773V12.874V12.8707V12.8674V12.8641V12.8607V12.8574V12.854V12.8506V12.8473V12.8439V12.8404V12.837V12.8336V12.8301V12.8267V12.8232V12.8197V12.8163V12.8128V12.8092V12.8057V12.8022V12.7987V12.7951V12.7915V12.788V12.7844V12.7808V12.7772V12.7735V12.7699V12.7663V12.7626V12.759V12.7553V12.7516V12.7479V12.7442V12.7405V12.7368V12.7331V12.7293V12.7256V12.7218V12.718V12.7143V12.7105V12.7067V12.7028V12.699V12.6952V12.6914V12.6875V12.6836V12.6798V12.6759V12.672V12.6681V12.6642V12.6603V12.6564V12.6524V12.6485V12.6445V12.6405V12.6366V12.6326V12.6286V12.6246V12.6206V12.6166V12.6125V12.6085V12.6045V12.6004V12.5963V12.5923V12.5882V12.5841V12.58V12.5759V12.5718V12.5677V12.5635V12.5594V12.5552V12.5511V12.5469V12.5427V12.5386V12.5344V12.5302V12.526V12.5217V12.5175V12.5133V12.5091V12.5048V12.5006V12.4963V12.492V12.4877V12.4835V12.4792V12.4749V12.4705V12.4662V12.4619V12.4576V12.4532V12.4489V12.4445V12.4402V12.4358V12.4314V12.427V12.4226V12.4183V12.4138V12.4094V12.405V12.4006V12.3962V12.3917V12.3873V12.3828V12.3784V12.3739V12.3694V12.3649V12.3604V12.3559V12.3514V12.3469V12.3424V12.3379V12.3334V12.3288V12.3243V12.3198V12.3152V12.3106V12.3061V12.3015V12.2969V12.2923V12.2878V12.2832V12.2786V12.2739V12.2693V12.2647V12.2601V12.2555V12.2508V12.2462V12.2415V12.2369V12.2322V12.2276V12.2229V12.2182V12.2135V12.2088V12.2041V12.1994V12.1947V12.19V12.1853V12.1806V12.1759V12.1712V12.1664V12.1617V12.1569V12.1522V12.1474V12.1427V12.1379V12.1331V12.1284V12.1236V12.1188V12.114V12.1092V12.1044V12.0996V12.0948V12.09V12.0852V12.0804V12.0756V12.0707V12.0659V12.0611V12.0562V12.0514V12.0465V12.0417V12.0368V12.032V12.0271V12.0222V12.0174V12.0125V12.0076V12.0027V11.9978V11.993V11.9881V11.9832V11.9783V11.9734V11.9685V11.9635V11.9586V11.9537V11.9488V11.9439V11.9389V11.934V11.9291V11.9241V11.9192V11.9142V11.9093V11.9044V11.8994V11.8944V11.8895V11.8845V11.8796V11.8746V11.8696V11.8647V11.8597V11.8547V11.8497V11.8447V11.8398V11.8348V11.8298V11.8248V11.8198V11.8148V11.8098V11.8048V11.7998V11.7948V11.7898V11.7848V11.7798V11.7747V11.7697V11.7647V11.7597V11.7547V11.7496V11.7446V11.7396V11.7346V11.7295V11.7245V11.7195V11.7144V11.7094V11.7044V11.6993V11.6943V11.6892V11.6842V11.6792V11.6741V11.6691V11.664V11.659V11.6539V11.6489V11.6438V11.6388V11.6337V11.6287V11.6236V11.6186V11.6135V11.6084V11.6034V11.5983V11.5933V11.5882V11.5832V11.5781V11.573V11.568V11.5629V11.5578V11.5528V11.5477V11.5427V11.5376V11.5325V11.5275V11.5224Z" fill="white"/>
</svg>
