<svg width="71" height="71" viewBox="0 0 71 71" fill="none" xmlns="http://www.w3.org/2000/svg">
<rect y="38.7891" width="54.8538" height="0.685673" transform="rotate(-45 0 38.7891)" fill="url(#paint0_linear_853_17589)"/>
<rect x="0.969727" y="39.7583" width="54.8538" height="0.685673" transform="rotate(-45 0.969727 39.7583)" fill="url(#paint1_linear_853_17589)"/>
<rect x="1.93945" y="40.7275" width="54.8538" height="0.685673" transform="rotate(-45 1.93945 40.7275)" fill="url(#paint2_linear_853_17589)"/>
<rect x="2.90918" y="41.6973" width="54.8538" height="0.685673" transform="rotate(-45 2.90918 41.6973)" fill="url(#paint3_linear_853_17589)"/>
<rect x="3.87891" y="42.667" width="54.8538" height="0.685673" transform="rotate(-45 3.87891 42.667)" fill="url(#paint4_linear_853_17589)"/>
<rect x="4.84863" y="43.6372" width="54.8538" height="0.685673" transform="rotate(-45 4.84863 43.6372)" fill="url(#paint5_linear_853_17589)"/>
<rect x="5.81836" y="44.6069" width="54.8538" height="0.685673" transform="rotate(-45 5.81836 44.6069)" fill="url(#paint6_linear_853_17589)"/>
<rect x="6.78809" y="45.5762" width="54.8538" height="0.685673" transform="rotate(-45 6.78809 45.5762)" fill="url(#paint7_linear_853_17589)"/>
<rect x="7.75781" y="46.5459" width="54.8538" height="0.685673" transform="rotate(-45 7.75781 46.5459)" fill="url(#paint8_linear_853_17589)"/>
<rect x="8.72754" y="47.5156" width="54.8538" height="0.685673" transform="rotate(-45 8.72754 47.5156)" fill="url(#paint9_linear_853_17589)"/>
<rect x="9.69727" y="48.4858" width="54.8538" height="0.685673" transform="rotate(-45 9.69727 48.4858)" fill="url(#paint10_linear_853_17589)"/>
<rect x="10.667" y="49.4551" width="54.8538" height="0.685673" transform="rotate(-45 10.667 49.4551)" fill="url(#paint11_linear_853_17589)"/>
<rect x="11.6367" y="50.4248" width="54.8538" height="0.685673" transform="rotate(-45 11.6367 50.4248)" fill="url(#paint12_linear_853_17589)"/>
<rect x="12.6064" y="51.394" width="54.8538" height="0.685673" transform="rotate(-45 12.6064 51.394)" fill="url(#paint13_linear_853_17589)"/>
<rect x="13.5762" y="52.3643" width="54.8538" height="0.685673" transform="rotate(-45 13.5762 52.3643)" fill="url(#paint14_linear_853_17589)"/>
<rect x="14.5459" y="53.3335" width="54.8538" height="0.685673" transform="rotate(-45 14.5459 53.3335)" fill="url(#paint15_linear_853_17589)"/>
<rect x="15.5156" y="54.3037" width="54.8538" height="0.685673" transform="rotate(-45 15.5156 54.3037)" fill="url(#paint16_linear_853_17589)"/>
<rect x="16.4854" y="55.2739" width="54.8538" height="0.685673" transform="rotate(-45 16.4854 55.2739)" fill="url(#paint17_linear_853_17589)"/>
<rect x="17.4551" y="56.2432" width="54.8538" height="0.685673" transform="rotate(-45 17.4551 56.2432)" fill="url(#paint18_linear_853_17589)"/>
<rect x="18.4238" y="57.2129" width="54.8538" height="0.685673" transform="rotate(-45 18.4238 57.2129)" fill="url(#paint19_linear_853_17589)"/>
<rect x="19.3936" y="58.1826" width="54.8538" height="0.685673" transform="rotate(-45 19.3936 58.1826)" fill="url(#paint20_linear_853_17589)"/>
<rect x="20.3633" y="59.1519" width="54.8538" height="0.685673" transform="rotate(-45 20.3633 59.1519)" fill="url(#paint21_linear_853_17589)"/>
<rect x="21.333" y="60.1221" width="54.8538" height="0.685673" transform="rotate(-45 21.333 60.1221)" fill="url(#paint22_linear_853_17589)"/>
<rect x="22.3027" y="61.0918" width="54.8538" height="0.685673" transform="rotate(-45 22.3027 61.0918)" fill="url(#paint23_linear_853_17589)"/>
<rect x="23.2725" y="62.061" width="54.8538" height="0.685673" transform="rotate(-45 23.2725 62.061)" fill="url(#paint24_linear_853_17589)"/>
<rect x="24.2422" y="63.0308" width="54.8538" height="0.685673" transform="rotate(-45 24.2422 63.0308)" fill="url(#paint25_linear_853_17589)"/>
<rect x="25.2119" y="64.0005" width="54.8538" height="0.685673" transform="rotate(-45 25.2119 64.0005)" fill="url(#paint26_linear_853_17589)"/>
<rect x="26.1816" y="64.9707" width="54.8538" height="0.685673" transform="rotate(-45 26.1816 64.9707)" fill="url(#paint27_linear_853_17589)"/>
<rect x="27.1514" y="65.9399" width="54.8538" height="0.685673" transform="rotate(-45 27.1514 65.9399)" fill="url(#paint28_linear_853_17589)"/>
<rect x="28.1211" y="66.9097" width="54.8538" height="0.685673" transform="rotate(-45 28.1211 66.9097)" fill="url(#paint29_linear_853_17589)"/>
<rect x="29.0908" y="67.8799" width="54.8538" height="0.685673" transform="rotate(-45 29.0908 67.8799)" fill="url(#paint30_linear_853_17589)"/>
<rect x="30.0605" y="68.8486" width="54.8538" height="0.685673" transform="rotate(-45 30.0605 68.8486)" fill="url(#paint31_linear_853_17589)"/>
<rect x="31.0303" y="69.8188" width="54.8538" height="0.685673" transform="rotate(-45 31.0303 69.8188)" fill="url(#paint32_linear_853_17589)"/>
<defs>
<linearGradient id="paint0_linear_853_17589" x1="1.71418" y1="38.7943" x2="1.74461" y2="40.4358" gradientUnits="userSpaceOnUse">
<stop stop-color="white"/>
<stop offset="1" stop-color="white" stop-opacity="0"/>
</linearGradient>
<linearGradient id="paint1_linear_853_17589" x1="2.68391" y1="39.7636" x2="2.71433" y2="41.4051" gradientUnits="userSpaceOnUse">
<stop stop-color="white"/>
<stop offset="1" stop-color="white" stop-opacity="0"/>
</linearGradient>
<linearGradient id="paint2_linear_853_17589" x1="3.65364" y1="40.7328" x2="3.68406" y2="42.3743" gradientUnits="userSpaceOnUse">
<stop stop-color="white"/>
<stop offset="1" stop-color="white" stop-opacity="0"/>
</linearGradient>
<linearGradient id="paint3_linear_853_17589" x1="4.62336" y1="41.7025" x2="4.65379" y2="43.344" gradientUnits="userSpaceOnUse">
<stop stop-color="white"/>
<stop offset="1" stop-color="white" stop-opacity="0"/>
</linearGradient>
<linearGradient id="paint4_linear_853_17589" x1="5.59309" y1="42.6723" x2="5.62351" y2="44.3137" gradientUnits="userSpaceOnUse">
<stop stop-color="white"/>
<stop offset="1" stop-color="white" stop-opacity="0"/>
</linearGradient>
<linearGradient id="paint5_linear_853_17589" x1="6.56282" y1="43.6425" x2="6.59324" y2="45.284" gradientUnits="userSpaceOnUse">
<stop stop-color="white"/>
<stop offset="1" stop-color="white" stop-opacity="0"/>
</linearGradient>
<linearGradient id="paint6_linear_853_17589" x1="7.53254" y1="44.6122" x2="7.56297" y2="46.2537" gradientUnits="userSpaceOnUse">
<stop stop-color="white"/>
<stop offset="1" stop-color="white" stop-opacity="0"/>
</linearGradient>
<linearGradient id="paint7_linear_853_17589" x1="8.50227" y1="45.5814" x2="8.53269" y2="47.2229" gradientUnits="userSpaceOnUse">
<stop stop-color="white"/>
<stop offset="1" stop-color="white" stop-opacity="0"/>
</linearGradient>
<linearGradient id="paint8_linear_853_17589" x1="9.47199" y1="46.5512" x2="9.50242" y2="48.1927" gradientUnits="userSpaceOnUse">
<stop stop-color="white"/>
<stop offset="1" stop-color="white" stop-opacity="0"/>
</linearGradient>
<linearGradient id="paint9_linear_853_17589" x1="10.4417" y1="47.5209" x2="10.4721" y2="49.1624" gradientUnits="userSpaceOnUse">
<stop stop-color="white"/>
<stop offset="1" stop-color="white" stop-opacity="0"/>
</linearGradient>
<linearGradient id="paint10_linear_853_17589" x1="11.4114" y1="48.4911" x2="11.4419" y2="50.1326" gradientUnits="userSpaceOnUse">
<stop stop-color="white"/>
<stop offset="1" stop-color="white" stop-opacity="0"/>
</linearGradient>
<linearGradient id="paint11_linear_853_17589" x1="12.3812" y1="49.4604" x2="12.4116" y2="51.1018" gradientUnits="userSpaceOnUse">
<stop stop-color="white"/>
<stop offset="1" stop-color="white" stop-opacity="0"/>
</linearGradient>
<linearGradient id="paint12_linear_853_17589" x1="13.3509" y1="50.4301" x2="13.3813" y2="52.0716" gradientUnits="userSpaceOnUse">
<stop stop-color="white"/>
<stop offset="1" stop-color="white" stop-opacity="0"/>
</linearGradient>
<linearGradient id="paint13_linear_853_17589" x1="14.3206" y1="51.3993" x2="14.3511" y2="53.0408" gradientUnits="userSpaceOnUse">
<stop stop-color="white"/>
<stop offset="1" stop-color="white" stop-opacity="0"/>
</linearGradient>
<linearGradient id="paint14_linear_853_17589" x1="15.2904" y1="52.3695" x2="15.3208" y2="54.011" gradientUnits="userSpaceOnUse">
<stop stop-color="white"/>
<stop offset="1" stop-color="white" stop-opacity="0"/>
</linearGradient>
<linearGradient id="paint15_linear_853_17589" x1="16.2601" y1="53.3388" x2="16.2905" y2="54.9802" gradientUnits="userSpaceOnUse">
<stop stop-color="white"/>
<stop offset="1" stop-color="white" stop-opacity="0"/>
</linearGradient>
<linearGradient id="paint16_linear_853_17589" x1="17.2298" y1="54.309" x2="17.2602" y2="55.9505" gradientUnits="userSpaceOnUse">
<stop stop-color="white"/>
<stop offset="1" stop-color="white" stop-opacity="0"/>
</linearGradient>
<linearGradient id="paint17_linear_853_17589" x1="18.1995" y1="55.2792" x2="18.23" y2="56.9207" gradientUnits="userSpaceOnUse">
<stop stop-color="white"/>
<stop offset="1" stop-color="white" stop-opacity="0"/>
</linearGradient>
<linearGradient id="paint18_linear_853_17589" x1="19.1693" y1="56.2484" x2="19.1997" y2="57.8899" gradientUnits="userSpaceOnUse">
<stop stop-color="white"/>
<stop offset="1" stop-color="white" stop-opacity="0"/>
</linearGradient>
<linearGradient id="paint19_linear_853_17589" x1="20.138" y1="57.2182" x2="20.1684" y2="58.8596" gradientUnits="userSpaceOnUse">
<stop stop-color="white"/>
<stop offset="1" stop-color="white" stop-opacity="0"/>
</linearGradient>
<linearGradient id="paint20_linear_853_17589" x1="21.1077" y1="58.1879" x2="21.1382" y2="59.8294" gradientUnits="userSpaceOnUse">
<stop stop-color="white"/>
<stop offset="1" stop-color="white" stop-opacity="0"/>
</linearGradient>
<linearGradient id="paint21_linear_853_17589" x1="22.0775" y1="59.1571" x2="22.1079" y2="60.7986" gradientUnits="userSpaceOnUse">
<stop stop-color="white"/>
<stop offset="1" stop-color="white" stop-opacity="0"/>
</linearGradient>
<linearGradient id="paint22_linear_853_17589" x1="23.0472" y1="60.1273" x2="23.0776" y2="61.7688" gradientUnits="userSpaceOnUse">
<stop stop-color="white"/>
<stop offset="1" stop-color="white" stop-opacity="0"/>
</linearGradient>
<linearGradient id="paint23_linear_853_17589" x1="24.0169" y1="61.0971" x2="24.0473" y2="62.7385" gradientUnits="userSpaceOnUse">
<stop stop-color="white"/>
<stop offset="1" stop-color="white" stop-opacity="0"/>
</linearGradient>
<linearGradient id="paint24_linear_853_17589" x1="24.9866" y1="62.0663" x2="25.0171" y2="63.7078" gradientUnits="userSpaceOnUse">
<stop stop-color="white"/>
<stop offset="1" stop-color="white" stop-opacity="0"/>
</linearGradient>
<linearGradient id="paint25_linear_853_17589" x1="25.9564" y1="63.036" x2="25.9868" y2="64.6775" gradientUnits="userSpaceOnUse">
<stop stop-color="white"/>
<stop offset="1" stop-color="white" stop-opacity="0"/>
</linearGradient>
<linearGradient id="paint26_linear_853_17589" x1="26.9261" y1="64.0058" x2="26.9565" y2="65.6472" gradientUnits="userSpaceOnUse">
<stop stop-color="white"/>
<stop offset="1" stop-color="white" stop-opacity="0"/>
</linearGradient>
<linearGradient id="paint27_linear_853_17589" x1="27.8958" y1="64.976" x2="27.9262" y2="66.6175" gradientUnits="userSpaceOnUse">
<stop stop-color="white"/>
<stop offset="1" stop-color="white" stop-opacity="0"/>
</linearGradient>
<linearGradient id="paint28_linear_853_17589" x1="28.8655" y1="65.9452" x2="28.896" y2="67.5867" gradientUnits="userSpaceOnUse">
<stop stop-color="white"/>
<stop offset="1" stop-color="white" stop-opacity="0"/>
</linearGradient>
<linearGradient id="paint29_linear_853_17589" x1="29.8353" y1="66.9149" x2="29.8657" y2="68.5564" gradientUnits="userSpaceOnUse">
<stop stop-color="white"/>
<stop offset="1" stop-color="white" stop-opacity="0"/>
</linearGradient>
<linearGradient id="paint30_linear_853_17589" x1="30.805" y1="67.8852" x2="30.8354" y2="69.5266" gradientUnits="userSpaceOnUse">
<stop stop-color="white"/>
<stop offset="1" stop-color="white" stop-opacity="0"/>
</linearGradient>
<linearGradient id="paint31_linear_853_17589" x1="31.7747" y1="68.8539" x2="31.8052" y2="70.4954" gradientUnits="userSpaceOnUse">
<stop stop-color="white"/>
<stop offset="1" stop-color="white" stop-opacity="0"/>
</linearGradient>
<linearGradient id="paint32_linear_853_17589" x1="32.7445" y1="69.8241" x2="32.7749" y2="71.4656" gradientUnits="userSpaceOnUse">
<stop stop-color="white"/>
<stop offset="1" stop-color="white" stop-opacity="0"/>
</linearGradient>
</defs>
</svg>
