<svg width="22" height="22" viewBox="0 0 22 22" fill="none" xmlns="http://www.w3.org/2000/svg">
<path fill-rule="evenodd" clip-rule="evenodd" d="M16.9348 9.8913C16.9348 13.7813 13.7813 16.9348 9.8913 16.9348C6.0013 16.9348 2.84783 13.7813 2.84783 9.8913C2.84783 6.0013 6.0013 2.84783 9.8913 2.84783C13.7813 2.84783 16.9348 6.0013 16.9348 9.8913ZM15.6501 17.3103C14.0598 18.5465 12.0615 19.2826 9.8913 19.2826C4.70463 19.2826 0.5 15.078 0.5 9.8913C0.5 4.70463 4.70463 0.5 9.8913 0.5C15.078 0.5 19.2826 4.70463 19.2826 9.8913C19.2826 12.0615 18.5465 14.0598 17.3103 15.6501L21.1562 19.496C21.6146 19.9544 21.6146 20.6977 21.1562 21.1562C20.6977 21.6146 19.9544 21.6146 19.496 21.1562L15.6501 17.3103Z" fill="white"/>
</svg>
