<svg width="18" height="12" viewBox="0 0 18 12" fill="none" xmlns="http://www.w3.org/2000/svg">
<path fill-rule="evenodd" clip-rule="evenodd" d="M2.33366 3.9165C2.33366 3.82577 2.37766 3.64849 2.65374 3.39465C2.93053 3.14016 3.37705 2.87267 3.99906 2.63078C5.23779 2.14905 7.00572 1.83317 9.00033 1.83317C10.9949 1.83317 12.7629 2.14905 14.0016 2.63078C14.6236 2.87267 15.0701 3.14016 15.3469 3.39465C15.623 3.64849 15.667 3.82577 15.667 3.9165C15.667 4.00724 15.623 4.18452 15.3469 4.43835C15.0701 4.69285 14.6236 4.96033 14.0016 5.20223C12.7629 5.68396 10.9949 5.99984 9.00033 5.99984C7.00572 5.99984 5.23779 5.68396 3.99906 5.20223C3.37705 4.96033 2.93053 4.69285 2.65374 4.43835C2.37766 4.18452 2.33366 4.00724 2.33366 3.9165ZM9.00033 0.166504C6.85279 0.166504 4.87072 0.503541 3.39499 1.07744C2.65977 1.36336 2.00794 1.72436 1.52569 2.16776C1.04273 2.61181 0.666992 3.20182 0.666992 3.9165C0.666992 4.00283 0.672474 4.08733 0.682964 4.16998C0.672486 4.22275 0.666992 4.27732 0.666992 4.33317V7.6665C0.666992 8.39789 1.00398 9.03192 1.48605 9.53848C1.96404 10.0407 2.61631 10.4551 3.35858 10.785C4.84521 11.4458 6.84057 11.8332 9.00033 11.8332C11.1601 11.8332 13.1554 11.4458 14.6421 10.785C15.3843 10.4551 16.0366 10.0407 16.5146 9.53848C16.9967 9.03192 17.3337 8.39789 17.3337 7.6665V4.33317C17.3337 4.27732 17.3282 4.22276 17.3177 4.16998C17.3282 4.08733 17.3337 4.00283 17.3337 3.9165C17.3337 3.20182 16.9579 2.61181 16.475 2.16776C15.9927 1.72436 15.3409 1.36336 14.6057 1.07744C13.1299 0.503541 11.1479 0.166504 9.00033 0.166504ZM15.667 6.25102C15.3434 6.43994 14.9857 6.60778 14.6057 6.75557C13.1299 7.32947 11.1479 7.6665 9.00033 7.6665C6.85279 7.6665 4.87072 7.32947 3.39499 6.75557C3.01496 6.60778 2.65722 6.43994 2.33366 6.25102V7.6665C2.33366 7.85559 2.41641 8.09847 2.69338 8.3895C2.97443 8.68483 3.42051 8.9887 4.03547 9.26202C5.26331 9.80772 7.01794 10.1665 9.00033 10.1665C10.9827 10.1665 12.7373 9.80772 13.9652 9.26202C14.5801 8.9887 15.0262 8.68483 15.3073 8.3895C15.5842 8.09847 15.667 7.85559 15.667 7.6665V6.25102Z" fill="white"/>
</svg>
